<?xml version="1.0" encoding="utf-8"?><svg viewBox="0 0 199 43" xmlns="http://www.w3.org/2000/svg" xmlns:xlink="http://www.w3.org/1999/xlink"><style>:root>svg{display:none}:root>svg:target{display:block}</style><svg viewBox="0 0 15 15" id="arrow" xmlns="http://www.w3.org/2000/svg"><path d="M1 14L14 1m0 0v13m0-13H1" stroke="#848484" stroke-width="1.3"/></svg><svg viewBox="0 0 16 16" id="location" xmlns="http://www.w3.org/2000/svg"><g clip-path="url(#bclip0_1_228)"><path d="M8.724.04C5.091-.369 2 2.465 2 6.008c0 1.387.451 2.619 1.458 3.988l3.907 5.648a.826.826 0 001.358-.002l2.584-3.71 1.451-2.21a5.976 5.976 0 001.231-4.574C13.617 2.49 11.403.34 8.724.039zm3.531 9.322l-1.462 2.224-2.58 3.706a.205.205 0 01-.34.001L3.961 9.638c-.929-1.263-1.343-2.383-1.343-3.63C2.618 3.038 5.043.62 8.024.62c.207 0 .418.012.63.036 2.403.27 4.388 2.197 4.72 4.58a5.383 5.383 0 01-1.119 4.127z"/><path d="M7.992 2.913A3.1 3.1 0 004.897 6.01a3.1 3.1 0 003.095 3.096 3.1 3.1 0 003.096-3.096 3.1 3.1 0 00-3.096-3.096zm0 5.572A2.48 2.48 0 015.516 6.01a2.48 2.48 0 012.476-2.477A2.48 2.48 0 0110.47 6.01a2.48 2.48 0 01-2.477 2.476z"/></g><defs><clipPath id="bclip0_1_228"><path fill="#fff" d="M0 0h16v16H0z"/></clipPath></defs></svg><svg fill="none" viewBox="0 0 199 43" id="logo" xmlns="http://www.w3.org/2000/svg"><path d="M.977 1h2.819l16.356 37.188h.29L36.8 1h2.82v40.772H37.13V6.912h-.249l-15.361 34.86h-2.447L3.713 6.912h-.249v34.86H.977V1z" fill="#000"/><path d="M37.185 1h2.556v36.292h.247L66.924 1h2.514v40.772h-2.576V5.519h-.247L39.72 41.772h-2.535V1zM78.308 36.191V42h-.53v-5.809h.53zm1.944 3.086V42h-.505v-4.357h.49v.684h.046c.102-.223.261-.402.477-.536.217-.136.486-.204.805-.204.293 0 .55.061.772.184.223.121.396.3.519.536.125.236.187.527.187.87V42h-.505v-2.79c0-.358-.1-.641-.3-.849-.2-.208-.466-.312-.8-.312-.23 0-.433.05-.61.148-.178.098-.319.24-.423.425a1.327 1.327 0 00-.153.655zm5.836-1.634v.44H84.01v-.44h2.08zm-1.43-1.043h.509v4.263c0 .181.03.324.093.428a.531.531 0 00.244.218c.1.042.207.063.32.063.067 0 .124-.004.17-.012l.126-.028.107.457a1.2 1.2 0 01-.181.05 1.18 1.18 0 01-.267.026c-.185 0-.364-.04-.536-.122a1.05 1.05 0 01-.42-.363c-.11-.16-.164-.36-.164-.598V36.6zm4.291 5.49c-.406 0-.758-.094-1.055-.283a1.9 1.9 0 01-.689-.791 2.693 2.693 0 01-.24-1.169c0-.439.08-.828.24-1.168.163-.343.387-.61.672-.803.288-.195.62-.292.996-.292.236 0 .464.043.683.13.22.085.416.217.59.395.176.175.315.398.417.666.102.267.153.583.153.947v.25h-3.403v-.445H90.2c0-.28-.056-.532-.17-.755a1.322 1.322 0 00-.468-.533 1.227 1.227 0 00-.69-.196c-.275 0-.518.074-.728.222-.21.147-.374.342-.494.584a1.825 1.825 0 00-.178.794v.267c0 .346.06.648.178.907.121.257.293.457.514.599.221.142.483.212.785.212.207 0 .387-.032.542-.096a1.16 1.16 0 00.638-.618l.48.156a1.412 1.412 0 01-.326.507c-.15.155-.337.28-.562.375a2 2 0 01-.772.139zm2.88-.09v-4.357h.49v.67h.038a1.09 1.09 0 01.454-.53 1.36 1.36 0 01.737-.205 3.762 3.762 0 01.266.009v.513a4.881 4.881 0 00-.119-.017 1.41 1.41 0 00-.184-.011c-.227 0-.43.048-.607.144a1.073 1.073 0 00-.57.97V42h-.505zm2.853 0v-4.357h.507V42h-.507zm.258-5.105a.374.374 0 01-.267-.105.348.348 0 01-.11-.258c0-.1.037-.186.11-.256a.368.368 0 01.267-.108c.104 0 .193.036.267.108.073.07.11.155.11.256 0 .1-.037.186-.11.258a.374.374 0 01-.267.105zm3.278 5.196a1.77 1.77 0 01-.999-.287 1.939 1.939 0 01-.674-.791 2.675 2.675 0 01-.244-1.171c0-.447.08-.84.243-1.178a1.91 1.91 0 01.675-.794 1.77 1.77 0 01.999-.286c.376 0 .708.095.995.286.288.191.513.456.675.794.165.339.247.731.247 1.178 0 .442-.081.833-.244 1.171-.162.337-.388.6-.678.791-.287.191-.619.287-.995.287zm0-.463c.302 0 .559-.08.769-.243.21-.163.368-.38.476-.65.11-.27.165-.568.165-.893 0-.326-.055-.624-.165-.897a1.525 1.525 0 00-.476-.655 1.208 1.208 0 00-.77-.247c-.3 0-.556.083-.768.247-.21.165-.37.383-.48.655a2.416 2.416 0 00-.16.897c0 .325.053.623.16.893.11.27.27.487.48.65.21.162.466.243.769.243zm3.026.372v-4.357h.49v.67h.037c.087-.22.238-.396.454-.53.217-.137.463-.205.737-.205a3.74 3.74 0 01.267.009v.513a4.852 4.852 0 00-.119-.017 1.41 1.41 0 00-.184-.011c-.227 0-.43.048-.607.144a1.071 1.071 0 00-.571.97V42h-.504zm5.198-5.809h.613l2.107 5.06h.051l2.107-5.06h.613V42h-.499v-4.688h-.046L109.429 42h-.483l-1.96-4.688h-.045V42h-.499v-5.809zM113.378 42v-4.357h.508V42h-.508zm.258-5.105a.371.371 0 01-.377-.363c0-.1.037-.186.111-.256a.365.365 0 01.266-.108.37.37 0 01.267.108c.074.07.11.155.11.256 0 .1-.036.186-.11.258a.375.375 0 01-.267.105zm2.09 2.382V42h-.505v-4.357h.491v.684h.045c.102-.223.261-.402.477-.536.217-.136.486-.204.805-.204.293 0 .55.061.772.184.223.121.396.3.519.536.124.236.187.527.187.87V42h-.505v-2.79c0-.358-.1-.641-.301-.849-.198-.208-.465-.312-.8-.312-.228 0-.432.05-.609.148-.178.098-.319.24-.423.425a1.328 1.328 0 00-.153.655zM119.852 42v-4.357h.508V42h-.508zm.258-5.105a.371.371 0 01-.377-.363c0-.1.037-.186.111-.256a.365.365 0 01.266-.108.37.37 0 01.267.108.34.34 0 01.11.256.35.35 0 01-.11.258.375.375 0 01-.267.105zM121.695 42v-4.357h.491v.67h.045c.087-.225.232-.402.434-.53.204-.131.449-.196.735-.196.3 0 .547.07.74.212.195.14.34.333.437.579h.037c.098-.242.258-.434.479-.576.223-.144.493-.215.811-.215.405 0 .724.127.959.383.234.253.351.624.351 1.111V42h-.504v-2.919c0-.344-.088-.602-.264-.774-.176-.172-.408-.258-.695-.258-.333 0-.589.102-.769.306-.179.205-.269.464-.269.778V42h-.516v-2.964c0-.295-.083-.533-.247-.715-.165-.181-.396-.272-.695-.272-.201 0-.381.05-.542.148a1.045 1.045 0 00-.377.41 1.278 1.278 0 00-.136.602V42h-.505zm8.073.1c-.263 0-.503-.052-.721-.154a1.266 1.266 0 01-.519-.448 1.282 1.282 0 01-.193-.715c0-.215.041-.397.122-.544.082-.148.197-.269.346-.363.15-.095.327-.17.531-.224.204-.055.429-.098.675-.128.244-.03.45-.057.618-.08.17-.022.3-.058.389-.107.089-.05.133-.129.133-.239v-.102c0-.297-.089-.53-.266-.7-.176-.172-.43-.258-.761-.258-.314 0-.57.069-.768.207-.197.138-.335.3-.414.488l-.48-.173c.099-.239.235-.429.409-.57.174-.144.368-.247.584-.31a2.196 2.196 0 011.174-.031c.182.044.35.12.505.227.155.106.281.254.377.445.097.19.145.43.145.72V42h-.505v-.69h-.031a1.39 1.39 0 01-.718.672c-.179.078-.39.117-.632.117zm.068-.463c.268 0 .501-.06.698-.179.196-.119.348-.277.453-.473.108-.199.162-.417.162-.656v-.63a.502.502 0 01-.19.097 2.641 2.641 0 01-.303.077c-.114.02-.227.038-.341.054l-.306.04c-.246.03-.456.077-.63.141a.91.91 0 00-.4.267.656.656 0 00-.139.43c0 .266.095.47.284.616.189.144.426.216.712.216zm3.666-5.446V42h-.505v-5.809h.505zM134.843 42v-4.357h.508V42h-.508zm.259-5.105a.375.375 0 01-.267-.105.347.347 0 01-.111-.258c0-.1.037-.186.111-.256a.37.37 0 01.267-.108c.104 0 .192.036.266.108.074.07.111.155.111.256 0 .1-.037.186-.111.258a.373.373 0 01-.266.105zm4.511 1.704l-.462.13a1.212 1.212 0 00-.193-.354.876.876 0 00-.326-.252 1.153 1.153 0 00-.493-.094c-.295 0-.537.07-.727.21a.645.645 0 00-.283.542c0 .187.064.34.193.456.13.116.331.207.601.276l.658.161c.365.09.638.23.82.423.183.193.275.435.275.726 0 .246-.068.464-.204.655a1.382 1.382 0 01-.57.451 2.058 2.058 0 01-.843.162c-.425 0-.776-.096-1.052-.287-.276-.193-.453-.47-.531-.834l.485-.119c.063.26.185.455.366.587.184.133.425.199.724.199.334 0 .602-.075.802-.224.201-.151.301-.34.301-.567a.607.607 0 00-.176-.443c-.117-.12-.295-.21-.533-.267l-.712-.17c-.378-.09-.658-.234-.84-.43a1.04 1.04 0 01-.272-.733c0-.24.065-.45.196-.632.13-.184.31-.327.539-.431.229-.104.489-.156.783-.156.399 0 .717.09.955.272.241.18.414.427.519.743zm2.884-.956v.44h-2.079v-.44h2.079zm-1.429-1.043h.507v4.263c0 .181.032.324.094.428a.53.53 0 00.244.218c.1.042.207.063.32.063.067 0 .123-.004.171-.012.047-.01.089-.019.124-.028l.108.457a1.185 1.185 0 01-.181.05 1.184 1.184 0 01-.267.026c-.185 0-.364-.04-.536-.122a1.053 1.053 0 01-.42-.363 1.042 1.042 0 01-.164-.598V36.6zm5.425 2l-.462.13a1.235 1.235 0 00-.193-.355.876.876 0 00-.326-.252 1.158 1.158 0 00-.494-.094c-.295 0-.537.07-.726.21a.646.646 0 00-.284.542c0 .187.065.34.193.456.131.116.331.207.601.276l.659.161c.364.09.638.23.819.423.184.193.275.435.275.726 0 .246-.068.464-.204.655a1.37 1.37 0 01-.57.451 2.053 2.053 0 01-.842.162c-.426 0-.777-.096-1.053-.287-.276-.193-.453-.47-.53-.834l.485-.119c.062.26.184.455.366.587.183.133.424.199.723.199.335 0 .602-.075.803-.224.2-.151.3-.34.3-.567a.606.606 0 00-.175-.443c-.118-.12-.295-.21-.534-.267l-.712-.17c-.378-.09-.658-.234-.839-.43a1.035 1.035 0 01-.272-.733c0-.24.065-.45.195-.632a1.31 1.31 0 01.539-.431c.229-.104.49-.156.783-.156.399 0 .718.09.956.272.24.18.413.427.519.743z" fill="#000"/><path d="M77 27.75h122" stroke="#000" stroke-width=".5"/><path d="M80.686 6.116l2.05-4.57h.613L80.94 7h-.505L78.05 1.545h.604l2.031 4.57zm-2.22-4.57V7h-.631V1.545h.632zM82.907 7V1.545h.632V7h-.632zm2.943-.899l2.88-4.556h.757V7h-.632V2.444L85.984 7h-.767V1.545h.632v4.556zm8.988-2.123v.596h-3.206v-.596h3.206zm-3.05-2.433V7h-.632V1.545h.632zm3.516 0V7h-.632V1.545h.632zm2.314 4.556l2.88-4.556h.756V7h-.632V2.444L97.752 7h-.767V1.545h.632v4.556zm8.157.015l2.049-4.57h.614L106.026 7h-.504l-2.383-5.455h.604l2.031 4.57zm-2.219-4.57V7h-.633V1.545h.633zM107.993 7V1.545h.633V7h-.633zm3.836.124c-.329 0-.63-.064-.902-.192a1.574 1.574 0 01-.65-.56c-.161-.247-.242-.545-.242-.896 0-.27.051-.497.153-.681.102-.185.246-.337.433-.455s.409-.212.664-.28a6.19 6.19 0 01.846-.16c.305-.038.563-.071.774-.1.213-.028.375-.073.486-.135.111-.061.167-.16.167-.298v-.128c0-.372-.111-.664-.334-.877-.22-.215-.537-.323-.951-.323-.393 0-.714.086-.963.26a1.433 1.433 0 00-.518.61l-.6-.217c.123-.298.293-.536.511-.713.218-.18.462-.31.731-.388a2.764 2.764 0 011.471-.04c.227.056.438.15.632.285.194.133.351.319.472.558.121.237.181.537.181.902V7h-.632v-.863h-.039a1.723 1.723 0 01-.337.469c-.15.151-.337.275-.561.373a1.987 1.987 0 01-.792.145zm.085-.579c.336 0 .627-.074.873-.223.247-.15.436-.347.569-.593a1.69 1.69 0 00.202-.82v-.79a.628.628 0 01-.238.122 3.253 3.253 0 01-.38.095 8.844 8.844 0 01-.426.068l-.383.05a3.547 3.547 0 00-.789.177c-.218.08-.385.192-.501.334a.817.817 0 00-.174.54c0 .331.119.588.356.77.236.18.533.27.891.27zm3.421.455v-.597h.171c.194 0 .35-.035.469-.106a.71.71 0 00.28-.37c.066-.172.116-.408.149-.706.033-.299.059-.673.078-1.122l.118-2.554h3.466V7h-.636V2.142h-2.23l-.103 2.17c-.022.442-.057.832-.107 1.168a2.84 2.84 0 01-.234.842 1.138 1.138 0 01-.448.507c-.189.114-.438.17-.745.17h-.228zm7.038-.899l2.88-4.556h.756V7h-.632V2.444L122.508 7h-.767V1.545h.632v4.556zm7.436 1.012c-.488 0-.913-.121-1.275-.365a2.423 2.423 0 01-.838-1.002c-.199-.424-.298-.906-.298-1.449 0-.546.1-1.033.302-1.46.203-.425.485-.76.845-1a2.18 2.18 0 011.253-.366c.365 0 .695.07.991.213a1.93 1.93 0 011.097 1.48h-.639a1.412 1.412 0 00-.479-.788c-.251-.22-.571-.33-.959-.33-.348 0-.656.095-.923.284a1.867 1.867 0 00-.629.785c-.149.334-.224.72-.224 1.161 0 .443.074.835.221 1.176.146.338.352.603.617.795.268.192.58.288.938.288.241 0 .462-.045.66-.135a1.365 1.365 0 00.782-.991h.639a1.926 1.926 0 01-1.073 1.484c-.293.147-.629.22-1.008.22zm2.985-4.971v-.597h4.261v.597h-1.804V7h-.632V2.142h-1.825zm6.13 1.51h1.598c.613 0 1.086.148 1.42.447.334.298.501.701.501 1.21 0 .339-.076.635-.227.888a1.516 1.516 0 01-.654.593c-.286.14-.633.21-1.04.21h-2.124V1.545h.636v4.858h1.488c.386 0 .696-.092.93-.277.237-.184.355-.447.355-.788 0-.348-.118-.617-.355-.806-.234-.19-.544-.284-.93-.284h-1.598V3.65zM143.363 7V1.545h.632V7h-.632zm5.758-.899l2.88-4.556h.756V7h-.632V2.444L149.256 7h-.767V1.545h.632v4.556zm8.988-2.123v.596h-3.207v-.596h3.207zm-3.051-2.433V7h-.632V1.545h.632zm3.516 0V7h-.632V1.545h.632zm.919.597v-.597h4.261v.597h-1.804V7h-.632V2.142h-1.825zm7.519 4.971c-.509 0-.949-.118-1.321-.355a2.388 2.388 0 01-.863-.99c-.201-.424-.301-.912-.301-1.463 0-.55.1-1.037.301-1.464.204-.428.485-.763.842-1.005.36-.243.775-.365 1.247-.365.295 0 .581.054.855.163.275.107.521.271.739.494.22.22.394.498.522.834.128.334.192.73.192 1.186v.313h-4.262v-.558h3.615c0-.35-.071-.665-.213-.944a1.651 1.651 0 00-.586-.668 1.533 1.533 0 00-.862-.245c-.346 0-.65.092-.913.277a1.9 1.9 0 00-.618.732 2.292 2.292 0 00-.224.994v.334c0 .433.075.812.224 1.136.152.322.366.572.643.75.277.177.605.266.983.266.258 0 .485-.04.679-.121a1.45 1.45 0 00.799-.774l.6.195c-.083.23-.219.442-.409.636-.187.194-.421.35-.703.468a2.5 2.5 0 01-.966.174zm3.606 1.932v-7.5h.614v1.04h.075c.075-.163.18-.33.312-.5.133-.173.308-.318.526-.437.22-.118.497-.177.831-.177.449 0 .842.118 1.179.355.338.234.601.563.788.987.189.421.284.913.284 1.474 0 .563-.095 1.057-.284 1.48-.187.424-.45.755-.788.991a1.986 1.986 0 01-1.172.355c-.329 0-.605-.059-.828-.177a1.7 1.7 0 01-.536-.437 2.495 2.495 0 01-.312-.511h-.057v3.057h-.632zm.625-4.769c0 .44.065.831.195 1.172.133.339.322.605.568.799.249.192.549.288.902.288.362 0 .668-.1.916-.299.251-.2.442-.472.572-.813.133-.34.199-.723.199-1.147a3.12 3.12 0 00-.195-1.133 1.808 1.808 0 00-.568-.799c-.251-.199-.559-.298-.924-.298-.355 0-.657.096-.905.288-.249.189-.438.452-.569.788a3.233 3.233 0 00-.191 1.154zm5.896-.625h1.595c.613 0 1.087.15 1.42.448.334.298.501.701.501 1.21 0 .339-.075.635-.224.888a1.518 1.518 0 01-.653.593c-.287.14-.635.21-1.044.21h-2.12V1.545h.632v4.858h1.488c.386 0 .697-.092.934-.277.237-.184.355-.447.355-.788 0-.348-.118-.617-.355-.806-.237-.19-.548-.284-.934-.284h-1.595V3.65zm7.11 3.462c-.509 0-.95-.118-1.321-.355-.372-.239-.66-.569-.863-.99-.201-.424-.302-.912-.302-1.463 0-.55.101-1.037.302-1.464.203-.428.484-.763.841-1.005.36-.243.776-.365 1.247-.365.296 0 .581.054.856.163.274.107.521.271.738.494.221.22.395.498.522.834.128.334.192.73.192 1.186v.313H182.2v-.558h3.615c0-.35-.071-.665-.213-.944a1.659 1.659 0 00-.586-.668 1.536 1.536 0 00-.863-.245c-.346 0-.65.092-.913.277a1.9 1.9 0 00-.618.732 2.291 2.291 0 00-.223.994v.334c0 .433.074.812.223 1.136.152.322.366.572.643.75.277.177.605.266.984.266.258 0 .484-.04.678-.121a1.455 1.455 0 00.799-.774l.6.195c-.083.23-.219.442-.408.636-.187.194-.422.35-.703.468-.28.116-.602.174-.966.174zm3.605 1.932v-7.5h.614v1.04h.075c.076-.163.18-.33.312-.5.133-.173.308-.318.526-.437.22-.118.497-.177.831-.177.45 0 .843.118 1.179.355.339.234.601.563.788.987.19.421.284.913.284 1.474 0 .563-.094 1.057-.284 1.48a2.312 2.312 0 01-.788.991 1.984 1.984 0 01-1.172.355c-.329 0-.605-.059-.827-.177a1.715 1.715 0 01-.537-.437 2.54 2.54 0 01-.312-.511h-.057v3.057h-.632zm.625-4.769c0 .44.065.831.195 1.172.133.339.322.605.569.799.248.192.549.288.902.288.362 0 .667-.1.916-.299.251-.2.441-.472.571-.813.133-.34.199-.723.199-1.147a3.12 3.12 0 00-.195-1.133 1.8 1.8 0 00-.568-.799c-.251-.199-.559-.298-.923-.298-.356 0-.657.096-.906.288-.249.189-.438.452-.568.788a3.21 3.21 0 00-.192 1.154zm6.895 2.848c-.329 0-.63-.064-.902-.192a1.574 1.574 0 01-.65-.56c-.161-.247-.242-.545-.242-.896 0-.27.051-.497.153-.681.102-.185.246-.337.433-.455s.409-.212.664-.28c.256-.07.538-.122.845-.16.306-.038.564-.071.775-.1.213-.028.375-.073.486-.135.111-.061.167-.16.167-.298v-.128c0-.372-.111-.664-.334-.877-.22-.215-.537-.323-.952-.323-.393 0-.713.086-.962.26a1.433 1.433 0 00-.518.61l-.6-.217c.123-.298.293-.536.511-.713.218-.18.462-.31.731-.388a2.764 2.764 0 011.471-.04c.227.056.438.15.632.285.194.133.351.319.472.558.121.237.181.537.181.902V7h-.632v-.863h-.039a1.723 1.723 0 01-.899.842 1.979 1.979 0 01-.791.145zm.085-.579c.336 0 .627-.074.873-.223.247-.15.436-.347.569-.593a1.69 1.69 0 00.202-.82v-.79a.628.628 0 01-.238.122 3.253 3.253 0 01-.38.095 8.844 8.844 0 01-.426.068l-.384.05a3.55 3.55 0 00-.788.177c-.218.08-.385.192-.501.334a.817.817 0 00-.174.54c0 .331.119.588.355.77.237.18.534.27.892.27zM81.762 12.5l.33.401a1.19 1.19 0 01-.536.299 3.197 3.197 0 01-.692.088c-.254.008-.527.018-.82.032-.422.022-.769.132-1.041.33-.272.197-.48.481-.622.853-.14.37-.227.82-.262 1.353h.07c.183-.372.44-.655.771-.849a2.15 2.15 0 011.101-.291c.42 0 .795.103 1.13.309.335.204.6.503.795.898.196.393.294.873.294 1.438 0 .56-.098 1.046-.294 1.46a2.25 2.25 0 01-.824.955c-.353.225-.766.338-1.24.338-.475 0-.892-.112-1.25-.334-.355-.225-.63-.555-.827-.99-.194-.439-.291-.977-.291-1.617v-.571c0-1.272.201-2.228.604-2.87.402-.641 1.021-.976 1.857-1.005.27-.01.515-.012.735-.007.22.002.414-.008.582-.032a.857.857 0 00.43-.188zm-1.84 7.035c.353 0 .659-.089.917-.267.258-.18.457-.433.596-.76.142-.326.213-.709.213-1.146 0-.436-.072-.808-.216-1.116a1.616 1.616 0 00-.597-.706 1.632 1.632 0 00-.898-.245c-.27 0-.513.052-.728.156a1.548 1.548 0 00-.547.437c-.152.19-.268.412-.348.667-.08.256-.122.537-.124.842 0 .66.154 1.183.461 1.566.31.381.734.572 1.272.572zm3.743 2.51v-7.5h.614v1.04h.075c.075-.162.18-.33.312-.5.133-.173.308-.318.526-.437.22-.118.497-.177.83-.177.45 0 .843.118 1.18.355.338.234.6.563.788.987.19.422.284.913.284 1.474 0 .563-.095 1.057-.284 1.48-.187.425-.45.755-.788.992a1.983 1.983 0 01-1.172.355c-.33 0-.605-.06-.828-.178a1.704 1.704 0 01-.536-.437 2.522 2.522 0 01-.313-.511h-.056v3.058h-.632zm.625-4.769c0 .44.065.831.195 1.172.133.339.322.605.568.8.249.19.55.287.902.287.362 0 .668-.1.916-.299a1.87 1.87 0 00.572-.813c.133-.34.199-.723.199-1.147 0-.419-.065-.796-.195-1.133a1.8 1.8 0 00-.569-.799c-.25-.198-.558-.298-.923-.298-.355 0-.657.096-.906.288-.248.19-.437.452-.568.788a3.212 3.212 0 00-.191 1.154zm6.003 1.826l2.88-4.556h.756V20h-.632v-4.556L90.427 20h-.766v-5.454h.632v4.556zm8.547-4.556v.596h-2.61V20h-.632v-5.454h3.242zm2.569 5.578c-.329 0-.63-.064-.902-.191a1.574 1.574 0 01-.65-.562c-.161-.246-.242-.544-.242-.894 0-.27.051-.498.153-.682.102-.185.246-.336.433-.455.187-.118.409-.212.664-.28.256-.069.538-.122.846-.16.305-.038.563-.071.774-.1a1.42 1.42 0 00.486-.134c.112-.062.167-.162.167-.299v-.128c0-.371-.111-.664-.334-.877-.22-.215-.537-.323-.951-.323-.393 0-.714.087-.963.26a1.433 1.433 0 00-.518.61l-.6-.216c.123-.299.293-.537.511-.714.218-.18.462-.31.732-.387a2.761 2.761 0 011.47-.039c.227.054.438.149.632.284.194.132.351.318.472.557.121.237.181.538.181.902V20h-.632v-.863h-.039a1.745 1.745 0 01-.898.842 1.987 1.987 0 01-.792.145zm.085-.578c.336 0 .627-.075.874-.224.246-.15.435-.347.568-.593a1.69 1.69 0 00.202-.82v-.789a.628.628 0 01-.238.12 3.254 3.254 0 01-.38.097 8.721 8.721 0 01-.426.067 48.2 48.2 0 01-.383.05 3.548 3.548 0 00-.789.177c-.218.08-.384.192-.5.334a.817.817 0 00-.174.54c0 .331.118.588.355.77.236.18.533.27.891.27zm3.311 2.006v-2.149h.473a2.545 2.545 0 00.536-.955c.066-.199.122-.43.167-.692.045-.265.083-.574.113-.927l.199-2.284h3.228v4.858h.81v2.149h-.632V20h-4.258v1.552h-.636zm1.201-2.149h2.883v-4.261h-2.006l-.164 1.687a10.823 10.823 0 01-.241 1.498 3.062 3.062 0 01-.472 1.076zm7.053.721c-.329 0-.63-.064-.902-.191a1.58 1.58 0 01-.65-.562c-.161-.246-.241-.544-.241-.894 0-.27.051-.498.153-.682.101-.185.246-.336.433-.455a2.39 2.39 0 01.664-.28c.255-.069.537-.122.845-.16.305-.038.563-.071.774-.1.213-.028.375-.073.487-.134.111-.062.167-.162.167-.299v-.128c0-.371-.112-.664-.334-.877-.22-.215-.538-.323-.952-.323-.393 0-.714.087-.962.26a1.435 1.435 0 00-.519.61l-.6-.216c.123-.299.294-.537.511-.714.218-.18.462-.31.732-.387a2.755 2.755 0 011.47-.039c.227.054.438.149.632.284.194.132.352.318.473.557.12.237.181.538.181.902V20h-.632v-.863h-.04a1.745 1.745 0 01-.898.842 1.987 1.987 0 01-.792.145zm.085-.578c.337 0 .628-.075.874-.224.246-.15.436-.347.568-.593.135-.249.203-.522.203-.82v-.789a.636.636 0 01-.238.12 3.306 3.306 0 01-.38.097 8.721 8.721 0 01-.426.067c-.143.02-.27.036-.384.05a3.525 3.525 0 00-.788.177c-.218.08-.385.192-.501.334a.817.817 0 00-.174.54c0 .331.118.588.355.77.237.18.534.27.891.27zm9.622-.43l2.049-4.57h.615L123.018 20h-.504l-2.383-5.454h.604l2.031 4.57zm-2.219-4.57V20h-.632v-5.454h.632zM124.986 20v-5.454h.632V20h-.632zm3.835.124c-.329 0-.63-.064-.902-.191a1.58 1.58 0 01-.65-.562c-.161-.246-.241-.544-.241-.894 0-.27.05-.498.152-.682.102-.185.246-.336.433-.455.187-.118.409-.212.665-.28.255-.069.537-.122.845-.16.305-.038.563-.071.774-.1a1.42 1.42 0 00.486-.134c.112-.062.167-.162.167-.299v-.128c0-.371-.111-.664-.334-.877-.22-.215-.537-.323-.951-.323-.393 0-.714.087-.963.26a1.433 1.433 0 00-.518.61l-.6-.216c.123-.299.293-.537.511-.714.218-.18.462-.31.732-.387a2.761 2.761 0 011.47-.039c.227.054.438.149.632.284.194.132.352.318.472.557.121.237.181.538.181.902V20h-.632v-.863h-.039a1.745 1.745 0 01-.898.842 1.987 1.987 0 01-.792.145zm.085-.578c.336 0 .627-.075.874-.224.246-.15.435-.347.568-.593a1.69 1.69 0 00.202-.82v-.789a.62.62 0 01-.238.12 3.254 3.254 0 01-.38.097 8.721 8.721 0 01-.426.067 48.2 48.2 0 01-.383.05 3.548 3.548 0 00-.789.177 1.14 1.14 0 00-.5.334.817.817 0 00-.174.54c0 .331.118.588.355.77.236.18.534.27.891.27zm6.089.568c-.488 0-.913-.122-1.275-.366a2.416 2.416 0 01-.838-1.002c-.199-.423-.299-.906-.299-1.448 0-.547.101-1.034.302-1.46.204-.426.485-.76.845-1.001.36-.244.778-.366 1.254-.366.364 0 .695.07.991.213a1.927 1.927 0 011.097 1.48h-.639a1.413 1.413 0 00-.48-.788c-.251-.22-.57-.33-.958-.33-.349 0-.656.095-.924.284a1.865 1.865 0 00-.628.785c-.149.334-.224.72-.224 1.161 0 .443.073.835.22 1.176.147.338.353.603.618.795.268.192.58.288.938.288.241 0 .461-.045.66-.135a1.37 1.37 0 00.781-.99h.639a1.933 1.933 0 01-1.072 1.484c-.294.146-.63.22-1.008.22zm2.984-4.972v-.596h4.262v.596h-1.804V20h-.632v-4.858h-1.826zm7.52 4.972c-.509 0-.95-.119-1.321-.355-.372-.24-.66-.57-.863-.991-.201-.424-.302-.912-.302-1.463 0-.55.101-1.037.302-1.463.203-.429.484-.764.841-1.005.36-.244.776-.366 1.247-.366.296 0 .581.054.856.163.274.107.521.271.738.494.221.22.395.498.522.834.128.334.192.73.192 1.186v.313h-4.261v-.558h3.615c0-.35-.071-.665-.213-.944a1.658 1.658 0 00-.586-.668 1.536 1.536 0 00-.863-.245c-.346 0-.65.093-.913.277a1.9 1.9 0 00-.618.732 2.291 2.291 0 00-.223.994v.334c0 .433.074.812.223 1.136.152.322.366.572.643.75.277.177.605.266.984.266.258 0 .484-.04.678-.12a1.454 1.454 0 00.799-.775l.6.195c-.083.23-.219.442-.408.636-.187.194-.422.35-.703.469-.28.116-.602.174-.966.174zm3.605 1.931v-7.5h.614v1.04h.075c.076-.162.18-.33.312-.5.133-.173.308-.318.526-.437.22-.118.497-.177.831-.177.45 0 .843.118 1.179.355.339.234.601.563.788.987.19.422.284.913.284 1.474 0 .563-.094 1.057-.284 1.48a2.312 2.312 0 01-.788.992 1.983 1.983 0 01-1.172.355c-.329 0-.605-.06-.827-.178a1.716 1.716 0 01-.537-.437 2.54 2.54 0 01-.312-.511h-.057v3.058h-.632zm.625-4.769c0 .44.065.831.195 1.172.133.339.322.605.569.8.248.19.549.287.902.287.362 0 .667-.1.916-.299.251-.2.441-.472.571-.813.133-.34.199-.723.199-1.147 0-.419-.065-.796-.195-1.133a1.8 1.8 0 00-.568-.799c-.251-.198-.559-.298-.923-.298-.356 0-.657.096-.906.288-.249.19-.438.452-.568.788a3.21 3.21 0 00-.192 1.154zm7.491 2.838c-.471 0-.888-.12-1.25-.359-.36-.24-.641-.57-.845-.99-.204-.425-.305-.913-.305-1.467 0-.56.101-1.05.305-1.474.204-.426.485-.758.845-.995.362-.239.779-.358 1.25-.358s.887.12 1.247.358c.359.24.641.571.845.995.206.424.309.915.309 1.474 0 .554-.102 1.042-.306 1.466a2.413 2.413 0 01-.848.991c-.36.24-.776.359-1.247.359zm0-.58c.379 0 .7-.101.963-.305.262-.203.461-.474.596-.813.137-.338.206-.711.206-1.118 0-.408-.069-.782-.206-1.123a1.916 1.916 0 00-.596-.82c-.263-.206-.584-.309-.963-.309a1.52 1.52 0 00-.962.31c-.263.205-.463.479-.6.82-.135.34-.203.714-.203 1.122 0 .407.068.78.203 1.118.137.339.337.61.6.813.263.204.583.306.962.306zm3.788.466v-5.454h2.149c.58 0 1.037.125 1.371.376.336.25.504.59.504 1.015 0 .325-.094.584-.281.778a1.55 1.55 0 01-.753.412c.211.036.406.113.586.231.183.118.331.275.444.469.114.194.171.426.171.696 0 .284-.071.537-.213.76a1.46 1.46 0 01-.601.525 2.04 2.04 0 01-.916.192h-2.461zm.604-.586h1.857c.334 0 .598-.085.792-.256.194-.172.291-.402.291-.689 0-.305-.092-.549-.277-.731-.182-.185-.427-.277-.735-.277h-1.928v1.953zm0-2.514h1.584c.246 0 .459-.038.639-.114a.946.946 0 00.416-.32.803.803 0 00.145-.49.706.706 0 00-.327-.62c-.217-.15-.522-.225-.912-.225h-1.545V16.9z" fill="#090909"/></svg></svg>