<svg width="16" height="16" viewBox="0 0 16 16" xmlns="http://www.w3.org/2000/svg">
<g clip-path="url(#clip0_1_228)">
<path d="M8.7243 0.039058C5.09052 -0.368341 1.99911 2.4655 1.99911 6.00888C1.99911 7.39578 2.45047 8.62788 3.45721 9.99744L7.36403 15.6447C7.5182 15.867 7.77143 16.0001 8.04262 16.0001C8.31566 16.0001 8.57075 15.8651 8.72244 15.6428L11.3062 11.9323L12.7574 9.72315C13.7821 8.42666 14.2192 6.80201 13.9883 5.14889C13.6168 2.49027 11.4027 0.341202 8.7243 0.039058ZM12.2553 9.36157L10.7929 11.5856L8.21227 15.2918C8.15716 15.3723 8.07482 15.3815 8.04262 15.3815C8.01042 15.3815 7.92808 15.3729 7.87297 15.293L3.9612 9.63833C3.03247 8.37465 2.61826 7.25461 2.61826 6.00888C2.61826 3.03697 5.04347 0.6192 8.02405 0.6192C8.23146 0.6192 8.44197 0.630964 8.65434 0.65511C11.0566 0.925678 13.0416 2.85185 13.3747 5.23495C13.5821 6.71905 13.1902 8.17652 12.2553 9.36157Z"/>
<path d="M7.99247 2.91309C6.28548 2.91309 4.89673 4.30184 4.89673 6.00883C4.89673 7.71582 6.28548 9.10457 7.99247 9.10457C9.69946 9.10457 11.0882 7.71582 11.0882 6.00883C11.0882 4.30184 9.69884 2.91309 7.99247 2.91309ZM7.99247 8.48542C6.62663 8.48542 5.51588 7.37467 5.51588 6.00883C5.51588 4.64299 6.62663 3.53223 7.99247 3.53223C9.35831 3.53223 10.4691 4.64299 10.4691 6.00883C10.4691 7.37467 9.35769 8.48542 7.99247 8.48542Z" />
</g>
<defs>
<clipPath id="clip0_1_228">
<rect width="16" height="16" fill="white"/>
</clipPath>
</defs>
</svg>
