<svg width="199" height="43" viewBox="0 0 199 43" fill="none" xmlns="http://www.w3.org/2000/svg">
<path d="M0.976562 1H3.79593L20.1524 38.1884H20.4427L36.7992 1H39.6185V41.7718H37.1308V6.91271H36.8821L21.5207 41.7718H19.0744L3.71301 6.91271H3.46424V41.7718H0.976562V1Z" fill="black"/>
<path d="M37.1855 1H39.741V37.2925H39.9883L66.9237 1H69.4379V41.7718H66.8618V5.51915H66.6145L39.7204 41.7718H37.1855V1Z" fill="black"/>
<path d="M78.3076 36.1912V42H77.7772V36.1912H78.3076ZM80.2519 39.2771V42H79.747V37.6434H80.2377V38.327H80.2831C80.3852 38.1038 80.544 37.9251 80.7596 37.7909C80.9771 37.6547 81.2456 37.5867 81.5651 37.5867C81.8582 37.5867 82.1154 37.6481 82.3366 37.771C82.5597 37.892 82.7327 38.0707 82.8557 38.3071C82.9805 38.5435 83.0429 38.8337 83.0429 39.1779V42H82.538V39.2091C82.538 38.8517 82.4378 38.569 82.2373 38.361C82.0388 38.153 81.7722 38.049 81.4375 38.049C81.2087 38.049 81.0054 38.0982 80.8277 38.1965C80.6499 38.2948 80.5091 38.4366 80.4051 38.6219C80.303 38.8053 80.2519 39.0237 80.2519 39.2771ZM86.0884 37.6434V38.083H84.0093V37.6434H86.0884ZM84.6589 36.5996H85.1666V40.8626C85.1666 41.0442 85.1978 41.1869 85.2602 41.2909C85.3226 41.393 85.4039 41.4658 85.5041 41.5093C85.6043 41.5509 85.7111 41.5717 85.8246 41.5717C85.8908 41.5717 85.9475 41.5679 85.9948 41.5604C86.042 41.5509 86.0836 41.5415 86.1196 41.532L86.2273 41.9887C86.1782 42.0076 86.1177 42.0246 86.0458 42.0397C85.974 42.0567 85.8851 42.0652 85.7792 42.0652C85.5939 42.0652 85.4152 42.0246 85.2431 41.9433C85.073 41.862 84.933 41.7409 84.8234 41.5802C84.7137 41.4195 84.6589 41.22 84.6589 40.9818V36.5996ZM88.9495 42.0908C88.543 42.0908 88.1913 41.9962 87.8944 41.8071C87.5975 41.6162 87.3678 41.3524 87.2052 41.0158C87.0444 40.6773 86.9641 40.2878 86.9641 39.8472C86.9641 39.4085 87.0444 39.019 87.2052 38.6787C87.3678 38.3364 87.5919 38.0688 87.8774 37.876C88.1648 37.6812 88.4966 37.5838 88.8729 37.5838C89.1093 37.5838 89.3371 37.6273 89.5565 37.7143C89.7758 37.7994 89.9725 37.9308 90.1464 38.1086C90.3223 38.2844 90.4613 38.5066 90.5634 38.7751C90.6655 39.0417 90.7165 39.3575 90.7165 39.7224V39.972H87.3129V39.5267H90.2003C90.2003 39.2469 90.1436 38.9954 90.0301 38.7723C89.9186 38.5472 89.7626 38.3695 89.5622 38.239C89.3636 38.1086 89.1339 38.0433 88.8729 38.0433C88.5969 38.0433 88.3539 38.1171 88.144 38.2646C87.9341 38.412 87.7696 38.6068 87.6505 38.8488C87.5332 39.0909 87.4737 39.3556 87.4718 39.643V39.9096C87.4718 40.2557 87.5313 40.5582 87.6505 40.8173C87.7715 41.0744 87.9426 41.2739 88.1638 41.4157C88.3851 41.5575 88.647 41.6284 88.9495 41.6284C89.1556 41.6284 89.3362 41.5963 89.4912 41.532C89.6482 41.4677 89.7796 41.3817 89.8855 41.2739C89.9933 41.1642 90.0746 41.0442 90.1294 40.9137L90.6088 41.0697C90.5426 41.2531 90.4339 41.4223 90.2826 41.5774C90.1332 41.7324 89.946 41.8572 89.721 41.9518C89.4979 42.0444 89.2407 42.0908 88.9495 42.0908ZM91.8291 42V37.6434H92.3198V38.3128H92.3566C92.4436 38.0934 92.5949 37.9166 92.8105 37.7824C93.0279 37.6462 93.2737 37.5782 93.5479 37.5782C93.5895 37.5782 93.6358 37.5791 93.6869 37.581C93.7379 37.5829 93.7805 37.5848 93.8145 37.5867V38.1C93.7918 38.0963 93.7521 38.0906 93.6954 38.083C93.6387 38.0755 93.5772 38.0717 93.511 38.0717C93.2841 38.0717 93.0818 38.1199 92.9041 38.2163C92.7282 38.3109 92.5892 38.4423 92.4871 38.6106C92.385 38.7789 92.334 38.9708 92.334 39.1864V42H91.8291ZM94.6817 42V37.6434H95.1894V42H94.6817ZM94.9398 36.8946C94.8358 36.8946 94.747 36.8596 94.6732 36.7897C94.5995 36.7178 94.5626 36.6318 94.5626 36.5316C94.5626 36.4313 94.5995 36.3463 94.6732 36.2763C94.747 36.2044 94.8358 36.1685 94.9398 36.1685C95.0438 36.1685 95.1327 36.2044 95.2065 36.2763C95.2802 36.3463 95.3171 36.4313 95.3171 36.5316C95.3171 36.6318 95.2802 36.7178 95.2065 36.7897C95.1327 36.8596 95.0438 36.8946 94.9398 36.8946ZM98.2179 42.0908C97.8416 42.0908 97.5088 41.9953 97.2195 41.8043C96.9321 41.6133 96.7071 41.3495 96.5445 41.013C96.3819 40.6745 96.3006 40.284 96.3006 39.8416C96.3006 39.3953 96.3819 39.0029 96.5445 38.6645C96.7071 38.3241 96.9321 38.0594 97.2195 37.8703C97.5088 37.6793 97.8416 37.5838 98.2179 37.5838C98.5942 37.5838 98.9261 37.6793 99.2135 37.8703C99.5009 38.0613 99.7259 38.326 99.8885 38.6645C100.053 39.0029 100.135 39.3953 100.135 39.8416C100.135 40.284 100.054 40.6745 99.8914 41.013C99.7287 41.3495 99.5028 41.6133 99.2135 41.8043C98.9261 41.9953 98.5942 42.0908 98.2179 42.0908ZM98.2179 41.6284C98.5205 41.6284 98.7767 41.5471 98.9866 41.3845C99.1965 41.2219 99.3553 41.0054 99.4631 40.735C99.5727 40.4646 99.6276 40.1668 99.6276 39.8416C99.6276 39.5163 99.5727 39.2176 99.4631 38.9453C99.3553 38.673 99.1965 38.4546 98.9866 38.2901C98.7767 38.1256 98.5205 38.0433 98.2179 38.0433C97.9173 38.0433 97.6611 38.1256 97.4493 38.2901C97.2394 38.4546 97.0796 38.673 96.9699 38.9453C96.8622 39.2176 96.8083 39.5163 96.8083 39.8416C96.8083 40.1668 96.8622 40.4646 96.9699 40.735C97.0796 41.0054 97.2394 41.2219 97.4493 41.3845C97.6592 41.5471 97.9154 41.6284 98.2179 41.6284ZM101.244 42V37.6434H101.734V38.3128H101.771C101.858 38.0934 102.009 37.9166 102.225 37.7824C102.442 37.6462 102.688 37.5782 102.962 37.5782C103.004 37.5782 103.05 37.5791 103.101 37.581C103.152 37.5829 103.195 37.5848 103.229 37.5867V38.1C103.206 38.0963 103.167 38.0906 103.11 38.083C103.053 38.0755 102.992 38.0717 102.926 38.0717C102.699 38.0717 102.496 38.1199 102.319 38.2163C102.143 38.3109 102.004 38.4423 101.902 38.6106C101.799 38.7789 101.748 38.9708 101.748 39.1864V42H101.244ZM106.442 36.1912H107.055L109.162 41.2512H109.213L111.32 36.1912H111.933V42H111.434V37.3115H111.388L109.429 42H108.946L106.986 37.3115H106.941V42H106.442V36.1912ZM113.378 42V37.6434H113.886V42H113.378ZM113.636 36.8946C113.532 36.8946 113.443 36.8596 113.37 36.7897C113.296 36.7178 113.259 36.6318 113.259 36.5316C113.259 36.4313 113.296 36.3463 113.37 36.2763C113.443 36.2044 113.532 36.1685 113.636 36.1685C113.74 36.1685 113.829 36.2044 113.903 36.2763C113.977 36.3463 114.013 36.4313 114.013 36.5316C114.013 36.6318 113.977 36.7178 113.903 36.7897C113.829 36.8596 113.74 36.8946 113.636 36.8946ZM115.726 39.2771V42H115.221V37.6434H115.712V38.327H115.757C115.859 38.1038 116.018 37.9251 116.234 37.7909C116.451 37.6547 116.72 37.5867 117.039 37.5867C117.332 37.5867 117.589 37.6481 117.811 37.771C118.034 37.892 118.207 38.0707 118.33 38.3071C118.454 38.5435 118.517 38.8337 118.517 39.1779V42H118.012V39.2091C118.012 38.8517 117.912 38.569 117.711 38.361C117.513 38.153 117.246 38.049 116.911 38.049C116.683 38.049 116.479 38.0982 116.302 38.1965C116.124 38.2948 115.983 38.4366 115.879 38.6219C115.777 38.8053 115.726 39.0237 115.726 39.2771ZM119.852 42V37.6434H120.36V42H119.852ZM120.11 36.8946C120.006 36.8946 119.917 36.8596 119.844 36.7897C119.77 36.7178 119.733 36.6318 119.733 36.5316C119.733 36.4313 119.77 36.3463 119.844 36.2763C119.917 36.2044 120.006 36.1685 120.11 36.1685C120.214 36.1685 120.303 36.2044 120.377 36.2763C120.45 36.3463 120.487 36.4313 120.487 36.5316C120.487 36.6318 120.45 36.7178 120.377 36.7897C120.303 36.8596 120.214 36.8946 120.11 36.8946ZM121.695 42V37.6434H122.186V38.3128H122.231C122.318 38.0878 122.463 37.911 122.665 37.7824C122.869 37.6519 123.114 37.5867 123.4 37.5867C123.7 37.5867 123.947 37.6576 124.14 37.7994C124.335 37.9393 124.48 38.1322 124.577 38.378H124.614C124.712 38.136 124.872 37.944 125.093 37.8022C125.316 37.6585 125.586 37.5867 125.904 37.5867C126.309 37.5867 126.628 37.7143 126.863 37.9696C127.097 38.223 127.214 38.5936 127.214 39.0814V42H126.71V39.0814C126.71 38.7373 126.622 38.4792 126.446 38.3071C126.27 38.135 126.038 38.049 125.751 38.049C125.418 38.049 125.162 38.1511 124.982 38.3553C124.803 38.5595 124.713 38.8186 124.713 39.1325V42H124.197V39.036C124.197 38.7411 124.114 38.5028 123.95 38.3213C123.785 38.1398 123.554 38.049 123.255 38.049C123.054 38.049 122.874 38.0982 122.713 38.1965C122.554 38.2948 122.429 38.4319 122.336 38.6078C122.245 38.7817 122.2 38.9821 122.2 39.2091V42H121.695ZM129.768 42.0993C129.505 42.0993 129.265 42.0482 129.047 41.9461C128.83 41.8421 128.657 41.6927 128.528 41.498C128.4 41.3013 128.335 41.0631 128.335 40.7832C128.335 40.5677 128.376 40.3861 128.457 40.2386C128.539 40.0912 128.654 39.9701 128.803 39.8756C128.953 39.781 129.13 39.7064 129.334 39.6515C129.538 39.5967 129.763 39.5541 130.009 39.5239C130.253 39.4936 130.459 39.4672 130.627 39.4445C130.797 39.4218 130.927 39.3858 131.016 39.3367C131.105 39.2875 131.149 39.2081 131.149 39.0984V38.9963C131.149 38.6995 131.06 38.4659 130.883 38.2958C130.707 38.1237 130.453 38.0376 130.122 38.0376C129.808 38.0376 129.552 38.1067 129.354 38.2447C129.157 38.3827 129.019 38.5454 128.94 38.7325L128.46 38.5595C128.559 38.3213 128.695 38.1312 128.869 37.9894C129.043 37.8457 129.237 37.7427 129.453 37.6803C129.669 37.616 129.887 37.5838 130.108 37.5838C130.275 37.5838 130.448 37.6056 130.627 37.6491C130.809 37.6926 130.977 37.7682 131.132 37.876C131.287 37.9819 131.413 38.1303 131.509 38.3213C131.606 38.5104 131.654 38.7505 131.654 39.0417V42H131.149V41.3108H131.118C131.057 41.4394 130.968 41.5642 130.848 41.6852C130.729 41.8062 130.58 41.9055 130.4 41.983C130.221 42.0605 130.01 42.0993 129.768 42.0993ZM129.836 41.6369C130.104 41.6369 130.337 41.5774 130.534 41.4583C130.73 41.3391 130.882 41.1812 130.987 40.9846C131.095 40.7861 131.149 40.5677 131.149 40.3294V39.6997C131.111 39.7357 131.048 39.7678 130.959 39.7962C130.872 39.8245 130.771 39.8501 130.656 39.8728C130.542 39.8936 130.429 39.9115 130.315 39.9266C130.202 39.9418 130.1 39.955 130.009 39.9664C129.763 39.9966 129.553 40.0439 129.379 40.1082C129.205 40.1725 129.072 40.2613 128.979 40.3748C128.887 40.4863 128.84 40.6301 128.84 40.8059C128.84 41.0706 128.935 41.2758 129.124 41.4214C129.313 41.5651 129.55 41.6369 129.836 41.6369ZM133.502 36.1912V42H132.997V36.1912H133.502ZM134.843 42V37.6434H135.351V42H134.843ZM135.102 36.8946C134.998 36.8946 134.909 36.8596 134.835 36.7897C134.761 36.7178 134.724 36.6318 134.724 36.5316C134.724 36.4313 134.761 36.3463 134.835 36.2763C134.909 36.2044 134.998 36.1685 135.102 36.1685C135.206 36.1685 135.294 36.2044 135.368 36.2763C135.442 36.3463 135.479 36.4313 135.479 36.5316C135.479 36.6318 135.442 36.7178 135.368 36.7897C135.294 36.8596 135.206 36.8946 135.102 36.8946ZM139.613 38.5992L139.151 38.7297C139.106 38.5992 139.041 38.4811 138.958 38.3752C138.875 38.2693 138.766 38.1851 138.632 38.1227C138.5 38.0603 138.335 38.0291 138.139 38.0291C137.844 38.0291 137.602 38.0991 137.412 38.239C137.223 38.379 137.129 38.5595 137.129 38.7808C137.129 38.968 137.193 39.1202 137.322 39.2374C137.452 39.3528 137.653 39.4445 137.923 39.5125L138.581 39.6742C138.946 39.7631 139.219 39.904 139.401 40.0968C139.584 40.2897 139.676 40.5317 139.676 40.8229C139.676 41.0687 139.608 41.2871 139.472 41.4781C139.335 41.6691 139.145 41.8194 138.902 41.9291C138.659 42.0369 138.379 42.0908 138.059 42.0908C137.634 42.0908 137.283 41.9953 137.007 41.8043C136.731 41.6114 136.554 41.3335 136.476 40.9704L136.961 40.8513C137.024 41.1103 137.146 41.306 137.327 41.4384C137.511 41.5708 137.752 41.6369 138.051 41.6369C138.385 41.6369 138.653 41.5623 138.853 41.4129C139.054 41.2616 139.154 41.0725 139.154 40.8456C139.154 40.6698 139.095 40.5223 138.978 40.4031C138.861 40.2821 138.683 40.1933 138.445 40.1365L137.733 39.9664C137.355 39.8756 137.075 39.7319 136.893 39.5352C136.712 39.3386 136.621 39.0947 136.621 38.8035C136.621 38.5633 136.686 38.3525 136.817 38.171C136.947 37.9875 137.127 37.8438 137.356 37.7398C137.585 37.6358 137.845 37.5838 138.139 37.5838C138.538 37.5838 138.856 37.6746 139.094 37.8561C139.335 38.0358 139.508 38.2835 139.613 38.5992ZM142.497 37.6434V38.083H140.418V37.6434H142.497ZM141.068 36.5996H141.575V40.8626C141.575 41.0442 141.607 41.1869 141.669 41.2909C141.731 41.393 141.813 41.4658 141.913 41.5093C142.013 41.5509 142.12 41.5717 142.233 41.5717C142.3 41.5717 142.356 41.5679 142.404 41.5604C142.451 41.5509 142.493 41.5415 142.528 41.532L142.636 41.9887C142.587 42.0076 142.527 42.0246 142.455 42.0397C142.383 42.0567 142.294 42.0652 142.188 42.0652C142.003 42.0652 141.824 42.0246 141.652 41.9433C141.482 41.862 141.342 41.7409 141.232 41.5802C141.123 41.4195 141.068 41.22 141.068 40.9818V36.5996ZM146.493 38.5992L146.031 38.7297C145.985 38.5992 145.921 38.4811 145.838 38.3752C145.755 38.2693 145.646 38.1851 145.512 38.1227C145.379 38.0603 145.215 38.0291 145.018 38.0291C144.723 38.0291 144.481 38.0991 144.292 38.239C144.103 38.379 144.008 38.5595 144.008 38.7808C144.008 38.968 144.073 39.1202 144.201 39.2374C144.332 39.3528 144.532 39.4445 144.802 39.5125L145.461 39.6742C145.825 39.7631 146.099 39.904 146.28 40.0968C146.464 40.2897 146.555 40.5317 146.555 40.8229C146.555 41.0687 146.487 41.2871 146.351 41.4781C146.215 41.6691 146.025 41.8194 145.781 41.9291C145.539 42.0369 145.258 42.0908 144.939 42.0908C144.513 42.0908 144.162 41.9953 143.886 41.8043C143.61 41.6114 143.433 41.3335 143.356 40.9704L143.841 40.8513C143.903 41.1103 144.025 41.306 144.207 41.4384C144.39 41.5708 144.631 41.6369 144.93 41.6369C145.265 41.6369 145.532 41.5623 145.733 41.4129C145.933 41.2616 146.033 41.0725 146.033 40.8456C146.033 40.6698 145.975 40.5223 145.858 40.4031C145.74 40.2821 145.563 40.1933 145.324 40.1365L144.612 39.9664C144.234 39.8756 143.954 39.7319 143.773 39.5352C143.591 39.3386 143.501 39.0947 143.501 38.8035C143.501 38.5633 143.566 38.3525 143.696 38.171C143.827 37.9875 144.006 37.8438 144.235 37.7398C144.464 37.6358 144.725 37.5838 145.018 37.5838C145.417 37.5838 145.736 37.6746 145.974 37.8561C146.214 38.0358 146.387 38.2835 146.493 38.5992Z" fill="black"/>
<path d="M77 27.75H199" stroke="black" stroke-width="0.5"/>
<path d="M80.6861 6.11559L82.7351 1.54527H83.3494L80.9382 6.99982H80.4339L78.0511 1.54527H78.6548L80.6861 6.11559ZM78.4666 1.54527V6.99982H77.8345V1.54527H78.4666ZM82.9055 6.99982V1.54527H83.5376V6.99982H82.9055ZM85.8494 6.10138L88.7294 1.54527H89.4858V6.99982H88.8537V2.44371L85.9844 6.99982H85.2173V1.54527H85.8494V6.10138ZM94.8374 3.9778V4.57439H91.6307V3.9778H94.8374ZM91.7869 1.54527V6.99982H91.1548V1.54527H91.7869ZM95.3026 1.54527V6.99982H94.6705V1.54527H95.3026ZM97.617 6.10138L100.497 1.54527H101.253V6.99982H100.621V2.44371L97.752 6.99982H96.9849V1.54527H97.617V6.10138ZM105.774 6.11559L107.823 1.54527H108.437L106.026 6.99982H105.522L103.139 1.54527H103.743L105.774 6.11559ZM103.555 1.54527V6.99982H102.922V1.54527H103.555ZM107.993 6.99982V1.54527H108.626V6.99982H107.993ZM111.829 7.12411C111.5 7.12411 111.199 7.06019 110.927 6.93235C110.654 6.80214 110.438 6.61511 110.277 6.37127C110.116 6.12506 110.035 5.82676 110.035 5.47638C110.035 5.2065 110.086 4.97922 110.188 4.79456C110.29 4.60991 110.434 4.45839 110.621 4.34002C110.808 4.22165 111.03 4.12813 111.285 4.05948C111.541 3.99082 111.823 3.93756 112.131 3.89968C112.436 3.8618 112.694 3.82866 112.905 3.80025C113.118 3.77184 113.28 3.72686 113.391 3.6653C113.502 3.60375 113.558 3.50432 113.558 3.36701V3.23917C113.558 2.86748 113.447 2.5751 113.224 2.36204C113.004 2.1466 112.687 2.03888 112.273 2.03888C111.88 2.03888 111.559 2.12529 111.31 2.29812C111.064 2.47094 110.891 2.67454 110.792 2.90891L110.192 2.69229C110.315 2.394 110.485 2.15607 110.703 1.97851C110.921 1.79859 111.165 1.66956 111.434 1.59144C111.704 1.51095 111.978 1.4707 112.255 1.4707C112.463 1.4707 112.68 1.49793 112.905 1.55238C113.132 1.60683 113.343 1.70152 113.537 1.83647C113.731 1.96904 113.888 2.15489 114.009 2.394C114.13 2.63074 114.19 2.9314 114.19 3.29599V6.99982H113.558V6.13689H113.519C113.443 6.29788 113.331 6.45413 113.182 6.60564C113.032 6.75716 112.845 6.88145 112.621 6.97851C112.396 7.07558 112.132 7.12411 111.829 7.12411ZM111.914 6.54528C112.25 6.54528 112.541 6.4707 112.787 6.32155C113.034 6.17241 113.223 5.97473 113.356 5.72851C113.491 5.47993 113.558 5.2065 113.558 4.9082V4.11985C113.511 4.16483 113.431 4.20508 113.32 4.24059C113.211 4.2761 113.085 4.30806 112.94 4.33647C112.798 4.36251 112.656 4.385 112.514 4.40394C112.372 4.42288 112.244 4.43945 112.131 4.45366C111.823 4.49153 111.56 4.55072 111.342 4.63121C111.124 4.7117 110.957 4.82297 110.841 4.96502C110.725 5.1047 110.667 5.28462 110.667 5.50479C110.667 5.83623 110.786 6.0931 111.023 6.27539C111.259 6.45531 111.556 6.54528 111.914 6.54528ZM115.335 6.99982V6.40323H115.506C115.7 6.40323 115.856 6.36772 115.975 6.2967C116.095 6.22331 116.189 6.1002 116.255 5.92738C116.321 5.75456 116.371 5.519 116.404 5.2207C116.437 4.92241 116.463 4.54835 116.482 4.09854L116.6 1.54527H120.066V6.99982H119.43V2.14187H117.2L117.097 4.31161C117.075 4.75432 117.04 5.14376 116.99 5.47993C116.943 5.81611 116.865 6.09665 116.756 6.32155C116.649 6.54646 116.5 6.71573 116.308 6.82937C116.119 6.943 115.87 6.99982 115.563 6.99982H115.335ZM122.373 6.10138L125.253 1.54527H126.009V6.99982H125.377V2.44371L122.508 6.99982H121.741V1.54527H122.373V6.10138ZM129.809 7.11346C129.321 7.11346 128.896 6.99153 128.534 6.74769C128.174 6.50385 127.895 6.17004 127.696 5.74627C127.497 5.3225 127.398 4.83955 127.398 4.29741C127.398 3.75053 127.498 3.26402 127.7 2.83789C127.903 2.41175 128.185 2.07795 128.545 1.83647C128.905 1.59262 129.322 1.4707 129.798 1.4707C130.163 1.4707 130.493 1.54172 130.789 1.68377C131.085 1.82345 131.329 2.02113 131.521 2.27681C131.715 2.53012 131.837 2.82605 131.886 3.16459H131.247C131.181 2.85683 131.021 2.59404 130.768 2.37624C130.517 2.15607 130.197 2.04598 129.809 2.04598C129.461 2.04598 129.153 2.14068 128.886 2.33008C128.618 2.5171 128.409 2.7787 128.257 3.11488C128.108 3.44868 128.033 3.83576 128.033 4.2761C128.033 4.71881 128.107 5.11062 128.254 5.45153C128.4 5.79007 128.606 6.05522 128.871 6.24698C129.139 6.43874 129.451 6.53462 129.809 6.53462C130.05 6.53462 130.271 6.48964 130.469 6.39968C130.671 6.30735 130.839 6.17714 130.974 6.00905C131.111 5.84097 131.203 5.64092 131.251 5.40891H131.89C131.843 5.73798 131.725 6.03154 131.538 6.28959C131.354 6.54528 131.113 6.74651 130.817 6.89329C130.524 7.04007 130.188 7.11346 129.809 7.11346ZM132.794 2.14187V1.54527H137.055V2.14187H135.251V6.99982H134.619V2.14187H132.794ZM138.924 3.6511H140.522C141.135 3.6511 141.608 3.80025 141.942 4.09854C142.276 4.39684 142.443 4.80048 142.443 5.30948C142.443 5.64802 142.367 5.94395 142.216 6.19726C142.067 6.45058 141.849 6.64826 141.562 6.7903C141.276 6.92998 140.929 6.99982 140.522 6.99982H138.398V1.54527H139.034V6.40323H140.522C140.908 6.40323 141.218 6.3109 141.452 6.12624C141.689 5.94158 141.807 5.6788 141.807 5.33789C141.807 4.98988 141.689 4.72117 141.452 4.53178C141.218 4.34239 140.908 4.24769 140.522 4.24769H138.924V3.6511ZM143.363 6.99982V1.54527H143.995V6.99982H143.363ZM149.121 6.10138L152.001 1.54527H152.757V6.99982H152.125V2.44371L149.256 6.99982H148.489V1.54527H149.121V6.10138ZM158.109 3.9778V4.57439H154.902V3.9778H158.109ZM155.058 1.54527V6.99982H154.426V1.54527H155.058ZM158.574 1.54527V6.99982H157.942V1.54527H158.574ZM159.493 2.14187V1.54527H163.754V2.14187H161.95V6.99982H161.318V2.14187H159.493ZM167.012 7.11346C166.503 7.11346 166.063 6.99509 165.691 6.75834C165.32 6.51923 165.032 6.18898 164.828 5.76758C164.627 5.34381 164.527 4.85612 164.527 4.30451C164.527 3.75527 164.627 3.26758 164.828 2.84144C165.032 2.41294 165.313 2.07795 165.67 1.83647C166.03 1.59262 166.445 1.4707 166.917 1.4707C167.212 1.4707 167.498 1.52515 167.772 1.63405C168.047 1.74059 168.293 1.90512 168.511 2.12766C168.731 2.34783 168.905 2.626 169.033 2.96218C169.161 3.29599 169.225 3.69135 169.225 4.14826V4.46076H164.963V3.90323H168.578C168.578 3.55285 168.507 3.23798 168.365 2.95863C168.226 2.6769 168.03 2.45437 167.779 2.29101C167.531 2.12766 167.243 2.04598 166.917 2.04598C166.571 2.04598 166.267 2.13831 166.004 2.32297C165.741 2.50763 165.535 2.75148 165.386 3.05451C165.239 3.35754 165.165 3.68898 165.162 4.04883V4.38263C165.162 4.81587 165.237 5.19466 165.386 5.519C165.538 5.84097 165.752 6.09073 166.029 6.26829C166.306 6.44584 166.634 6.53462 167.012 6.53462C167.27 6.53462 167.497 6.49438 167.691 6.41388C167.887 6.33339 168.052 6.22567 168.184 6.09073C168.319 5.95342 168.421 5.80309 168.49 5.63974L169.09 5.83505C169.007 6.06469 168.871 6.27657 168.681 6.4707C168.494 6.66483 168.26 6.82108 167.978 6.93945C167.699 7.05546 167.377 7.11346 167.012 7.11346ZM170.618 9.04528V1.54527H171.232V2.58576H171.307C171.382 2.42241 171.487 2.2555 171.619 2.08505C171.752 1.91223 171.927 1.76663 172.145 1.64826C172.365 1.52989 172.642 1.4707 172.976 1.4707C173.425 1.4707 173.818 1.58907 174.155 1.82581C174.493 2.06019 174.756 2.38926 174.943 2.81303C175.132 3.23443 175.227 3.72567 175.227 4.28675C175.227 4.8502 175.132 5.34381 174.943 5.76758C174.756 6.19135 174.493 6.5216 174.155 6.75834C173.818 6.99509 173.428 7.11346 172.983 7.11346C172.654 7.11346 172.378 7.05427 172.155 6.9359C171.935 6.81753 171.756 6.67193 171.619 6.49911C171.484 6.32392 171.38 6.15347 171.307 5.98775H171.25V9.04528H170.618ZM171.243 4.2761C171.243 4.71644 171.308 5.10706 171.438 5.44797C171.571 5.78652 171.76 6.05285 172.006 6.24698C172.255 6.43874 172.555 6.53462 172.908 6.53462C173.27 6.53462 173.576 6.43519 173.824 6.23633C174.075 6.0351 174.266 5.76403 174.396 5.42312C174.529 5.08221 174.595 4.69987 174.595 4.2761C174.595 3.85706 174.53 3.47946 174.4 3.14329C174.272 2.80711 174.082 2.54078 173.832 2.34428C173.581 2.14542 173.273 2.04598 172.908 2.04598C172.553 2.04598 172.251 2.14187 172.003 2.33363C171.754 2.52302 171.565 2.78581 171.434 3.12198C171.307 3.45579 171.243 3.84049 171.243 4.2761ZM177.139 3.6511H178.734C179.347 3.6511 179.821 3.80025 180.154 4.09854C180.488 4.39684 180.655 4.80048 180.655 5.30948C180.655 5.64802 180.58 5.94395 180.431 6.19726C180.282 6.45058 180.064 6.64826 179.778 6.7903C179.491 6.92998 179.143 6.99982 178.734 6.99982H176.614V1.54527H177.246V6.40323H178.734C179.12 6.40323 179.431 6.3109 179.668 6.12624C179.905 5.94158 180.023 5.6788 180.023 5.33789C180.023 4.98988 179.905 4.72117 179.668 4.53178C179.431 4.34239 179.12 4.24769 178.734 4.24769H177.139V3.6511ZM184.249 7.11346C183.74 7.11346 183.299 6.99509 182.928 6.75834C182.556 6.51923 182.268 6.18898 182.065 5.76758C181.864 5.34381 181.763 4.85612 181.763 4.30451C181.763 3.75527 181.864 3.26758 182.065 2.84144C182.268 2.41294 182.549 2.07795 182.906 1.83647C183.266 1.59262 183.682 1.4707 184.153 1.4707C184.449 1.4707 184.734 1.52515 185.009 1.63405C185.283 1.74059 185.53 1.90512 185.747 2.12766C185.968 2.34783 186.142 2.626 186.269 2.96218C186.397 3.29599 186.461 3.69135 186.461 4.14826V4.46076H182.2V3.90323H185.815C185.815 3.55285 185.744 3.23798 185.602 2.95863C185.462 2.6769 185.267 2.45437 185.016 2.29101C184.767 2.12766 184.48 2.04598 184.153 2.04598C183.807 2.04598 183.503 2.13831 183.24 2.32297C182.977 2.50763 182.771 2.75148 182.622 3.05451C182.476 3.35754 182.401 3.68898 182.399 4.04883V4.38263C182.399 4.81587 182.473 5.19466 182.622 5.519C182.774 5.84097 182.988 6.09073 183.265 6.26829C183.542 6.44584 183.87 6.53462 184.249 6.53462C184.507 6.53462 184.733 6.49438 184.927 6.41388C185.124 6.33339 185.288 6.22567 185.421 6.09073C185.556 5.95342 185.657 5.80309 185.726 5.63974L186.326 5.83505C186.243 6.06469 186.107 6.27657 185.918 6.4707C185.731 6.66483 185.496 6.82108 185.215 6.93945C184.935 7.05546 184.613 7.11346 184.249 7.11346ZM187.854 9.04528V1.54527H188.468V2.58576H188.543C188.619 2.42241 188.723 2.2555 188.855 2.08505C188.988 1.91223 189.163 1.76663 189.381 1.64826C189.601 1.52989 189.878 1.4707 190.212 1.4707C190.662 1.4707 191.055 1.58907 191.391 1.82581C191.73 2.06019 191.992 2.38926 192.179 2.81303C192.369 3.23443 192.463 3.72567 192.463 4.28675C192.463 4.8502 192.369 5.34381 192.179 5.76758C191.992 6.19135 191.73 6.5216 191.391 6.75834C191.055 6.99509 190.664 7.11346 190.219 7.11346C189.89 7.11346 189.614 7.05427 189.392 6.9359C189.172 6.81753 188.993 6.67193 188.855 6.49911C188.721 6.32392 188.616 6.15347 188.543 5.98775H188.486V9.04528H187.854ZM188.479 4.2761C188.479 4.71644 188.544 5.10706 188.674 5.44797C188.807 5.78652 188.996 6.05285 189.243 6.24698C189.491 6.43874 189.792 6.53462 190.145 6.53462C190.507 6.53462 190.812 6.43519 191.061 6.23633C191.312 6.0351 191.502 5.76403 191.632 5.42312C191.765 5.08221 191.831 4.69987 191.831 4.2761C191.831 3.85706 191.766 3.47946 191.636 3.14329C191.508 2.80711 191.319 2.54078 191.068 2.34428C190.817 2.14542 190.509 2.04598 190.145 2.04598C189.789 2.04598 189.488 2.14187 189.239 2.33363C188.99 2.52302 188.801 2.78581 188.671 3.12198C188.543 3.45579 188.479 3.84049 188.479 4.2761ZM195.374 7.12411C195.045 7.12411 194.744 7.06019 194.472 6.93235C194.199 6.80214 193.983 6.61511 193.822 6.37127C193.661 6.12506 193.58 5.82676 193.58 5.47638C193.58 5.2065 193.631 4.97922 193.733 4.79456C193.835 4.60991 193.979 4.45839 194.166 4.34002C194.353 4.22165 194.575 4.12813 194.83 4.05948C195.086 3.99082 195.368 3.93756 195.675 3.89968C195.981 3.8618 196.239 3.82866 196.45 3.80025C196.663 3.77184 196.825 3.72686 196.936 3.6653C197.047 3.60375 197.103 3.50432 197.103 3.36701V3.23917C197.103 2.86748 196.992 2.5751 196.769 2.36204C196.549 2.1466 196.232 2.03888 195.817 2.03888C195.424 2.03888 195.104 2.12529 194.855 2.29812C194.609 2.47094 194.436 2.67454 194.337 2.90891L193.737 2.69229C193.86 2.394 194.03 2.15607 194.248 1.97851C194.466 1.79859 194.71 1.66956 194.979 1.59144C195.249 1.51095 195.523 1.4707 195.8 1.4707C196.008 1.4707 196.225 1.49793 196.45 1.55238C196.677 1.60683 196.888 1.70152 197.082 1.83647C197.276 1.96904 197.433 2.15489 197.554 2.394C197.675 2.63074 197.735 2.9314 197.735 3.29599V6.99982H197.103V6.13689H197.064C196.988 6.29788 196.876 6.45413 196.727 6.60564C196.577 6.75716 196.39 6.88145 196.165 6.97851C195.941 7.07558 195.677 7.12411 195.374 7.12411ZM195.459 6.54528C195.795 6.54528 196.086 6.4707 196.332 6.32155C196.579 6.17241 196.768 5.97473 196.901 5.72851C197.036 5.47993 197.103 5.2065 197.103 4.9082V4.11985C197.056 4.16483 196.976 4.20508 196.865 4.24059C196.756 4.2761 196.63 4.30806 196.485 4.33647C196.343 4.36251 196.201 4.385 196.059 4.40394C195.917 4.42288 195.789 4.43945 195.675 4.45366C195.368 4.49153 195.105 4.55072 194.887 4.63121C194.669 4.7117 194.502 4.82297 194.386 4.96502C194.27 5.1047 194.212 5.28462 194.212 5.50479C194.212 5.83623 194.331 6.0931 194.567 6.27539C194.804 6.45531 195.101 6.54528 195.459 6.54528Z" fill="#090909"/>
<path d="M81.7621 12.5L82.0923 12.9013C81.9432 13.0457 81.7644 13.1451 81.5561 13.1996C81.3501 13.2517 81.1193 13.2812 80.8636 13.2884C80.6103 13.2955 80.3369 13.3061 80.0433 13.3203C79.6219 13.3416 79.2751 13.4517 79.0028 13.6506C78.7306 13.8471 78.5234 14.1312 78.3814 14.5028C78.2417 14.8722 78.1541 15.3232 78.1186 15.8558H78.1896C78.3719 15.4841 78.6288 15.2012 78.9602 15.0071C79.294 14.813 79.661 14.7159 80.0611 14.7159C80.4801 14.7159 80.8565 14.8189 81.1903 15.0249C81.5265 15.2285 81.7917 15.5279 81.9858 15.9233C82.1823 16.3163 82.2805 16.7957 82.2805 17.3615C82.2805 17.9202 82.1823 18.4067 81.9858 18.821C81.7893 19.233 81.5147 19.5514 81.1619 19.7763C80.8092 20.0012 80.3961 20.1136 79.9226 20.1136C79.4467 20.1136 79.0301 20.0024 78.6726 19.7798C78.3175 19.5549 78.0417 19.2247 77.8452 18.7891C77.651 18.3511 77.554 17.8125 77.554 17.1733V16.6016C77.554 15.3303 77.7552 14.3738 78.1577 13.7322C78.5601 13.0907 79.1792 12.7557 80.0149 12.7273C80.2848 12.7178 80.5298 12.7154 80.75 12.7202C80.9702 12.7225 81.1643 12.7119 81.3324 12.6882C81.5005 12.6622 81.6437 12.5994 81.7621 12.5ZM79.9226 19.5348C80.2753 19.5348 80.5807 19.446 80.8388 19.2685C81.0968 19.0885 81.2957 18.8352 81.4354 18.5085C81.5774 18.1818 81.6484 17.7995 81.6484 17.3615C81.6484 16.9259 81.5762 16.5542 81.4318 16.2464C81.2898 15.9387 81.0909 15.7031 80.8352 15.5398C80.5795 15.3764 80.2801 15.2947 79.9368 15.2947C79.6669 15.2947 79.4242 15.3468 79.2088 15.451C78.9957 15.5528 78.8134 15.6984 78.6619 15.8878C78.5104 16.0772 78.3944 16.2997 78.3139 16.5554C78.2334 16.8111 78.192 17.0916 78.1896 17.397C78.1896 18.0575 78.3435 18.5795 78.6513 18.9631C78.9614 19.3442 79.3852 19.5348 79.9226 19.5348ZM83.6646 22.0455V14.5455H84.2789V15.5859H84.3535C84.4293 15.4226 84.5334 15.2557 84.666 15.0852C84.7986 14.9124 84.9738 14.7668 85.1916 14.6484C85.4118 14.5301 85.6887 14.4709 86.0226 14.4709C86.4724 14.4709 86.8654 14.5893 87.2015 14.826C87.5401 15.0604 87.8029 15.3894 87.9899 15.8132C88.1793 16.2346 88.274 16.7259 88.274 17.2869C88.274 17.8504 88.1793 18.344 87.9899 18.7678C87.8029 19.1915 87.5401 19.5218 87.2015 19.7585C86.8654 19.9953 86.4747 20.1136 86.0297 20.1136C85.7006 20.1136 85.4248 20.0545 85.2022 19.9361C84.9821 19.8177 84.8033 19.6721 84.666 19.4993C84.5311 19.3241 84.4269 19.1536 84.3535 18.9879H84.2967V22.0455H83.6646ZM84.2896 17.2763C84.2896 17.7166 84.3547 18.1072 84.4849 18.4482C84.6175 18.7867 84.8069 19.053 85.0531 19.2472C85.3017 19.4389 85.6023 19.5348 85.9551 19.5348C86.3173 19.5348 86.6227 19.4354 86.8713 19.2365C87.1222 19.0353 87.3128 18.7642 87.443 18.4233C87.5756 18.0824 87.6419 17.7 87.6419 17.2763C87.6419 16.8572 87.5768 16.4796 87.4466 16.1435C87.3187 15.8073 87.1293 15.541 86.8784 15.3445C86.6274 15.1456 86.3197 15.0462 85.9551 15.0462C85.6 15.0462 85.2981 15.142 85.0495 15.3338C84.801 15.5232 84.6116 15.786 84.4814 16.1222C84.3535 16.456 84.2896 16.8407 84.2896 17.2763ZM90.2928 19.1016L93.1728 14.5455H93.9292V20H93.2971V15.4439L90.4277 20H89.6607V14.5455H90.2928V19.1016ZM98.8404 14.5455V15.142H96.2303V20H95.5982V14.5455H98.8404ZM101.409 20.1243C101.08 20.1243 100.779 20.0604 100.507 19.9325C100.234 19.8023 100.018 19.6153 99.8569 19.3714C99.6959 19.1252 99.6154 18.8269 99.6154 18.4766C99.6154 18.2067 99.6663 17.9794 99.7681 17.7947C99.8699 17.6101 100.014 17.4586 100.201 17.3402C100.388 17.2218 100.61 17.1283 100.865 17.0597C101.121 16.991 101.403 16.9377 101.711 16.8999C102.016 16.862 102.274 16.8288 102.485 16.8004C102.698 16.772 102.86 16.727 102.971 16.6655C103.083 16.6039 103.138 16.5045 103.138 16.3672V16.2393C103.138 15.8677 103.027 15.5753 102.804 15.3622C102.584 15.1468 102.267 15.0391 101.853 15.0391C101.46 15.0391 101.139 15.1255 100.89 15.2983C100.644 15.4711 100.471 15.6747 100.372 15.9091L99.7717 15.6925C99.8948 15.3942 100.065 15.1563 100.283 14.9787C100.501 14.7988 100.745 14.6697 101.015 14.5916C101.284 14.5111 101.558 14.4709 101.835 14.4709C102.043 14.4709 102.26 14.4981 102.485 14.5526C102.712 14.607 102.923 14.7017 103.117 14.8366C103.311 14.9692 103.468 15.1551 103.589 15.3942C103.71 15.6309 103.77 15.9316 103.77 16.2962V20H103.138V19.1371H103.099C103.023 19.2981 102.911 19.4543 102.762 19.6058C102.613 19.7573 102.426 19.8816 102.201 19.9787C101.976 20.0758 101.712 20.1243 101.409 20.1243ZM101.494 19.5455C101.83 19.5455 102.121 19.4709 102.368 19.3217C102.614 19.1726 102.803 18.9749 102.936 18.7287C103.071 18.4801 103.138 18.2067 103.138 17.9084V17.12C103.091 17.165 103.011 17.2053 102.9 17.2408C102.791 17.2763 102.665 17.3082 102.52 17.3366C102.378 17.3627 102.236 17.3852 102.094 17.4041C101.952 17.4231 101.824 17.4396 101.711 17.4538C101.403 17.4917 101.14 17.5509 100.922 17.6314C100.704 17.7119 100.538 17.8232 100.422 17.9652C100.306 18.1049 100.248 18.2848 100.248 18.505C100.248 18.8364 100.366 19.0933 100.603 19.2756C100.839 19.4555 101.136 19.5455 101.494 19.5455ZM104.805 21.5518V19.4034H105.278C105.396 19.2708 105.499 19.1276 105.587 18.9737C105.674 18.8198 105.75 18.6447 105.814 18.4482C105.88 18.2493 105.936 18.0185 105.981 17.7557C106.026 17.4905 106.064 17.1816 106.094 16.8288L106.293 14.5455H109.521V19.4034H110.331V21.5518H109.699V20H105.441V21.5518H104.805ZM106.006 19.4034H108.889V15.142H106.883L106.719 16.8288C106.663 17.4018 106.582 17.9013 106.478 18.3274C106.374 18.7536 106.216 19.1122 106.006 19.4034ZM113.059 20.1243C112.73 20.1243 112.429 20.0604 112.157 19.9325C111.885 19.8023 111.668 19.6153 111.507 19.3714C111.346 19.1252 111.266 18.8269 111.266 18.4766C111.266 18.2067 111.317 17.9794 111.419 17.7947C111.52 17.6101 111.665 17.4586 111.852 17.3402C112.039 17.2218 112.26 17.1283 112.516 17.0597C112.771 16.991 113.053 16.9377 113.361 16.8999C113.666 16.862 113.924 16.8288 114.135 16.8004C114.348 16.772 114.51 16.727 114.622 16.6655C114.733 16.6039 114.789 16.5045 114.789 16.3672V16.2393C114.789 15.8677 114.677 15.5753 114.455 15.3622C114.235 15.1468 113.917 15.0391 113.503 15.0391C113.11 15.0391 112.789 15.1255 112.541 15.2983C112.294 15.4711 112.122 15.6747 112.022 15.9091L111.422 15.6925C111.545 15.3942 111.716 15.1563 111.933 14.9787C112.151 14.7988 112.395 14.6697 112.665 14.5916C112.935 14.5111 113.208 14.4709 113.485 14.4709C113.694 14.4709 113.91 14.4981 114.135 14.5526C114.362 14.607 114.573 14.7017 114.767 14.8366C114.961 14.9692 115.119 15.1551 115.24 15.3942C115.36 15.6309 115.421 15.9316 115.421 16.2962V20H114.789V19.1371H114.749C114.674 19.2981 114.561 19.4543 114.412 19.6058C114.263 19.7573 114.076 19.8816 113.851 19.9787C113.626 20.0758 113.362 20.1243 113.059 20.1243ZM113.144 19.5455C113.481 19.5455 113.772 19.4709 114.018 19.3217C114.264 19.1726 114.454 18.9749 114.586 18.7287C114.721 18.4801 114.789 18.2067 114.789 17.9084V17.12C114.741 17.165 114.662 17.2053 114.551 17.2408C114.442 17.2763 114.315 17.3082 114.171 17.3366C114.029 17.3627 113.887 17.3852 113.745 17.4041C113.602 17.4231 113.475 17.4396 113.361 17.4538C113.053 17.4917 112.79 17.5509 112.573 17.6314C112.355 17.7119 112.188 17.8232 112.072 17.9652C111.956 18.1049 111.898 18.2848 111.898 18.505C111.898 18.8364 112.016 19.0933 112.253 19.2756C112.49 19.4555 112.787 19.5455 113.144 19.5455ZM122.766 19.1158L124.815 14.5455H125.43L123.018 20H122.514L120.131 14.5455H120.735L122.766 19.1158ZM120.547 14.5455V20H119.915V14.5455H120.547ZM124.986 20V14.5455H125.618V20H124.986ZM128.821 20.1243C128.492 20.1243 128.191 20.0604 127.919 19.9325C127.647 19.8023 127.43 19.6153 127.269 19.3714C127.108 19.1252 127.028 18.8269 127.028 18.4766C127.028 18.2067 127.078 17.9794 127.18 17.7947C127.282 17.6101 127.426 17.4586 127.613 17.3402C127.8 17.2218 128.022 17.1283 128.278 17.0597C128.533 16.991 128.815 16.9377 129.123 16.8999C129.428 16.862 129.686 16.8288 129.897 16.8004C130.11 16.772 130.272 16.727 130.383 16.6655C130.495 16.6039 130.55 16.5045 130.55 16.3672V16.2393C130.55 15.8677 130.439 15.5753 130.216 15.3622C129.996 15.1468 129.679 15.0391 129.265 15.0391C128.872 15.0391 128.551 15.1255 128.302 15.2983C128.056 15.4711 127.883 15.6747 127.784 15.9091L127.184 15.6925C127.307 15.3942 127.477 15.1563 127.695 14.9787C127.913 14.7988 128.157 14.6697 128.427 14.5916C128.697 14.5111 128.97 14.4709 129.247 14.4709C129.455 14.4709 129.672 14.4981 129.897 14.5526C130.124 14.607 130.335 14.7017 130.529 14.8366C130.723 14.9692 130.881 15.1551 131.001 15.3942C131.122 15.6309 131.182 15.9316 131.182 16.2962V20H130.55V19.1371H130.511C130.435 19.2981 130.323 19.4543 130.174 19.6058C130.025 19.7573 129.838 19.8816 129.613 19.9787C129.388 20.0758 129.124 20.1243 128.821 20.1243ZM128.906 19.5455C129.242 19.5455 129.533 19.4709 129.78 19.3217C130.026 19.1726 130.215 18.9749 130.348 18.7287C130.483 18.4801 130.55 18.2067 130.55 17.9084V17.12C130.503 17.165 130.424 17.2053 130.312 17.2408C130.203 17.2763 130.077 17.3082 129.932 17.3366C129.79 17.3627 129.648 17.3852 129.506 17.4041C129.364 17.4231 129.236 17.4396 129.123 17.4538C128.815 17.4917 128.552 17.5509 128.334 17.6314C128.117 17.7119 127.95 17.8232 127.834 17.9652C127.718 18.1049 127.66 18.2848 127.66 18.505C127.66 18.8364 127.778 19.0933 128.015 19.2756C128.251 19.4555 128.549 19.5455 128.906 19.5455ZM134.995 20.1136C134.507 20.1136 134.082 19.9917 133.72 19.7479C133.36 19.504 133.08 19.1702 132.882 18.7464C132.683 18.3227 132.583 17.8397 132.583 17.2976C132.583 16.7507 132.684 16.2642 132.885 15.8381C133.089 15.4119 133.37 15.0781 133.73 14.8366C134.09 14.5928 134.508 14.4709 134.984 14.4709C135.348 14.4709 135.679 14.5419 135.975 14.6839C136.271 14.8236 136.514 15.0213 136.706 15.277C136.9 15.5303 137.022 15.8262 137.072 16.1648H136.433C136.366 15.857 136.207 15.5942 135.953 15.3764C135.702 15.1563 135.383 15.0462 134.995 15.0462C134.646 15.0462 134.339 15.1409 134.071 15.3303C133.804 15.5173 133.594 15.7789 133.443 16.1151C133.294 16.4489 133.219 16.8359 133.219 17.2763C133.219 17.719 133.292 18.1108 133.439 18.4517C133.586 18.7902 133.792 19.0554 134.057 19.2472C134.325 19.4389 134.637 19.5348 134.995 19.5348C135.236 19.5348 135.456 19.4898 135.655 19.3999C135.856 19.3075 136.024 19.1773 136.159 19.0092C136.297 18.8411 136.389 18.6411 136.436 18.4091H137.075C137.028 18.7382 136.911 19.0317 136.724 19.2898C136.539 19.5455 136.299 19.7467 136.003 19.8935C135.709 20.0402 135.373 20.1136 134.995 20.1136ZM137.979 15.142V14.5455H142.241V15.142H140.437V20H139.805V15.142H137.979ZM145.499 20.1136C144.99 20.1136 144.549 19.9953 144.178 19.7585C143.806 19.5194 143.518 19.1892 143.315 18.7678C143.114 18.344 143.013 17.8563 143.013 17.3047C143.013 16.7554 143.114 16.2678 143.315 15.8416C143.518 15.4131 143.799 15.0781 144.156 14.8366C144.516 14.5928 144.932 14.4709 145.403 14.4709C145.699 14.4709 145.984 14.5253 146.259 14.6342C146.533 14.7408 146.78 14.9053 146.997 15.1278C147.218 15.348 147.392 15.6262 147.519 15.9624C147.647 16.2962 147.711 16.6915 147.711 17.1484V17.4609H143.45V16.9034H147.065C147.065 16.553 146.994 16.2382 146.852 15.9588C146.712 15.6771 146.517 15.4545 146.266 15.2912C146.017 15.1278 145.73 15.0462 145.403 15.0462C145.057 15.0462 144.753 15.1385 144.49 15.3232C144.227 15.5078 144.021 15.7517 143.872 16.0547C143.726 16.3577 143.651 16.6892 143.649 17.049V17.3828C143.649 17.8161 143.723 18.1948 143.872 18.5192C144.024 18.8411 144.238 19.0909 144.515 19.2685C144.792 19.446 145.12 19.5348 145.499 19.5348C145.757 19.5348 145.983 19.4946 146.177 19.4141C146.374 19.3336 146.538 19.2259 146.671 19.0909C146.806 18.9536 146.907 18.8033 146.976 18.6399L147.576 18.8352C147.493 19.0649 147.357 19.2768 147.168 19.4709C146.981 19.665 146.746 19.8213 146.465 19.9396C146.185 20.0556 145.863 20.1136 145.499 20.1136ZM149.104 22.0455V14.5455H149.718V15.5859H149.793C149.869 15.4226 149.973 15.2557 150.105 15.0852C150.238 14.9124 150.413 14.7668 150.631 14.6484C150.851 14.5301 151.128 14.4709 151.462 14.4709C151.912 14.4709 152.305 14.5893 152.641 14.826C152.98 15.0604 153.242 15.3894 153.429 15.8132C153.619 16.2346 153.713 16.7259 153.713 17.2869C153.713 17.8504 153.619 18.344 153.429 18.7678C153.242 19.1915 152.98 19.5218 152.641 19.7585C152.305 19.9953 151.914 20.1136 151.469 20.1136C151.14 20.1136 150.864 20.0545 150.642 19.9361C150.422 19.8177 150.243 19.6721 150.105 19.4993C149.971 19.3241 149.866 19.1536 149.793 18.9879H149.736V22.0455H149.104ZM149.729 17.2763C149.729 17.7166 149.794 18.1072 149.924 18.4482C150.057 18.7867 150.246 19.053 150.493 19.2472C150.741 19.4389 151.042 19.5348 151.395 19.5348C151.757 19.5348 152.062 19.4354 152.311 19.2365C152.562 19.0353 152.752 18.7642 152.882 18.4233C153.015 18.0824 153.081 17.7 153.081 17.2763C153.081 16.8572 153.016 16.4796 152.886 16.1435C152.758 15.8073 152.569 15.541 152.318 15.3445C152.067 15.1456 151.759 15.0462 151.395 15.0462C151.039 15.0462 150.738 15.142 150.489 15.3338C150.24 15.5232 150.051 15.786 149.921 16.1222C149.793 16.456 149.729 16.8407 149.729 17.2763ZM157.22 20.1136C156.749 20.1136 156.332 19.9941 155.97 19.755C155.61 19.5159 155.329 19.1856 155.125 18.7642C154.921 18.3404 154.82 17.8516 154.82 17.2976C154.82 16.7389 154.921 16.2476 155.125 15.8239C155.329 15.3977 155.61 15.0663 155.97 14.8295C156.332 14.5904 156.749 14.4709 157.22 14.4709C157.691 14.4709 158.107 14.5904 158.467 14.8295C158.826 15.0687 159.108 15.4001 159.312 15.8239C159.518 16.2476 159.621 16.7389 159.621 17.2976C159.621 17.8516 159.519 18.3404 159.315 18.7642C159.112 19.1856 158.829 19.5159 158.467 19.755C158.107 19.9941 157.691 20.1136 157.22 20.1136ZM157.22 19.5348C157.599 19.5348 157.92 19.433 158.183 19.2294C158.445 19.0258 158.644 18.7547 158.779 18.4162C158.916 18.0777 158.985 17.7048 158.985 17.2976C158.985 16.8904 158.916 16.5163 158.779 16.1754C158.644 15.8345 158.445 15.5611 158.183 15.3551C157.92 15.1491 157.599 15.0462 157.22 15.0462C156.844 15.0462 156.523 15.1491 156.258 15.3551C155.995 15.5611 155.795 15.8345 155.658 16.1754C155.523 16.5163 155.455 16.8904 155.455 17.2976C155.455 17.7048 155.523 18.0777 155.658 18.4162C155.795 18.7547 155.995 19.0258 156.258 19.2294C156.521 19.433 156.841 19.5348 157.22 19.5348ZM161.008 20V14.5455H163.157C163.737 14.5455 164.194 14.6709 164.528 14.9219C164.864 15.1728 165.032 15.5114 165.032 15.9375C165.032 16.2618 164.938 16.5211 164.751 16.7152C164.564 16.9093 164.313 17.0466 163.998 17.1271C164.209 17.1626 164.404 17.2396 164.584 17.358C164.767 17.4763 164.915 17.6326 165.028 17.8267C165.142 18.0208 165.199 18.2528 165.199 18.5227C165.199 18.8068 165.128 19.0601 164.986 19.2827C164.844 19.5052 164.644 19.6804 164.385 19.8082C164.127 19.9361 163.822 20 163.469 20H161.008ZM161.612 19.4141H163.469C163.803 19.4141 164.067 19.3288 164.261 19.1584C164.455 18.9856 164.552 18.7559 164.552 18.4695C164.552 18.1641 164.46 17.9202 164.275 17.7379C164.093 17.5533 163.848 17.4609 163.54 17.4609H161.612V19.4141ZM161.612 16.8999H163.196C163.442 16.8999 163.655 16.862 163.835 16.7862C164.015 16.7105 164.153 16.6039 164.251 16.4666C164.35 16.3269 164.399 16.1636 164.396 15.9766C164.396 15.709 164.287 15.5019 164.069 15.3551C163.852 15.206 163.547 15.1314 163.157 15.1314H161.612V16.8999Z" fill="#090909"/>
</svg>
